<?xml version="1.0" encoding="UTF-8" standalone="no"?>
<!-- Created with Inkscape (http://www.inkscape.org/) -->

<svg
   width="400"
   height="400"
   viewBox="0 0 400 400"
   version="1.1"
   id="svg1"
   inkscape:version="1.3.2 (091e20ef0f, 2023-11-25)"
   sodipodi:docname="logo.svg"
   xmlns:inkscape="http://www.inkscape.org/namespaces/inkscape"
   xmlns:sodipodi="http://sodipodi.sourceforge.net/DTD/sodipodi-0.dtd"
   xmlns="http://www.w3.org/2000/svg"
   xmlns:svg="http://www.w3.org/2000/svg">
  <sodipodi:namedview
     id="namedview1"
     pagecolor="#505050"
     bordercolor="#eeeeee"
     borderopacity="1"
     inkscape:showpageshadow="0"
     inkscape:pageopacity="0"
     inkscape:pagecheckerboard="0"
     inkscape:deskcolor="#505050"
     inkscape:document-units="px"
     inkscape:zoom="1.0015858"
     inkscape:cx="250.10339"
     inkscape:cy="238.12239"
     inkscape:window-width="1920"
     inkscape:window-height="1043"
     inkscape:window-x="0"
     inkscape:window-y="0"
     inkscape:window-maximized="1"
     inkscape:current-layer="layer1" />
  <defs
     id="defs1" />
  <g
     inkscape:label="logo"
     inkscape:groupmode="layer"
     id="layer1"
     transform="translate(-9.5902605,5.6628948)">
    <path
       style="-inkscape-font-specification:Gabriela;fill:#ffffff;stroke-width:32.397"
       d="m 245.37416,297.51125 q -44.70798,0 -71.92153,-20.60454 -27.21355,-20.99331 -27.21355,-59.48105 0,-26.04726 17.88319,-46.26304 17.88319,-20.21578 52.87204,-29.15737 -24.88096,-6.22024 -40.0428,-21.77084 -15.16183,-15.93937 -15.16183,-42.764156 0,-17.494425 10.49665,-33.433791 10.88542,-15.939365 32.2675,-26.047256 21.38207,-10.4966552 53.26081,-10.4966552 18.27195,0 33.04502,5.8314752 14.77307,5.831475 23.3259,16.328131 8.9416,10.496655 8.9416,24.492196 0,14.77307 -8.9416,24.492195 -8.94159,9.330361 -24.88096,9.330361 -8.16406,0 -8.16406,-3.88765 0,-2.33259 3.88765,-7.386536 4.27641,-5.44271 4.27641,-18.66072 0,-14.773071 -9.33036,-23.714666 -9.33036,-8.941596 -26.43602,-8.941596 -15.93937,0 -27.21355,7.386536 -10.88542,6.99777 -16.32813,18.66072 -5.44271,11.274186 -5.44271,23.714666 0,27.213556 13.99554,40.820326 14.3843,13.60678 33.43379,13.60678 2.72136,0 3.88765,3.11012 1.55506,2.72135 1.55506,5.44271 0,2.33259 -1.16629,5.05394 -1.1663,2.72136 -3.88765,2.72136 -32.2675,8.16406 -47.04057,28.37984 -14.77307,20.21578 -14.77307,42.76415 0,14.77308 6.609,28.76862 6.99777,13.60677 19.82702,22.54837 12.82924,8.55283 30.71244,8.55283 25.65849,0 42.76415,-13.60678 17.10566,-13.60677 17.10566,-39.65403 0,-11.27419 -2.72136,-19.04949 -2.72135,-7.7753 -6.609,-12.82924 -4.27642,0 -8.16407,0.38876 -3.49888,0 -6.609,0 -18.66072,1.55506 -27.60232,6.60901 -8.55283,4.66518 -12.05171,9.33036 -3.11012,4.27641 -5.83148,4.27641 -3.11012,0 -5.83148,-3.88765 -2.72135,-4.27641 -2.72135,-8.55283 0,-11.27418 8.9416,-15.93936 9.33036,-5.05395 23.71466,-6.60901 14.77307,-1.55506 30.71244,-2.33259 16.32813,-0.77753 30.71243,-3.11012 14.77307,-2.72135 23.71467,-9.33036 9.33036,-6.99777 9.33036,-20.99331 0,-12.44048 -5.05395,-19.43825 -5.05394,-6.99777 -10.49665,-10.88542 -5.05395,-3.88765 -5.05395,-6.609 0,-3.11012 5.83148,-4.27642 6.22024,-1.55506 11.27418,-1.55506 16.32813,0 28.76862,10.88542 12.44048,10.88542 12.44048,29.15738 0,14.3843 -6.99777,24.10343 -6.99777,9.33036 -18.66073,15.16183 -11.27418,5.44271 -24.88096,8.16407 -13.60677,2.72135 -26.43602,3.88765 8.55283,7.38653 13.60678,17.88319 5.05394,10.49665 5.05394,22.54837 0,14.77307 -8.55283,30.32367 -8.55283,15.5506 -28.37984,26.04726 -19.82702,10.49665 -53.64957,10.49665 z"
       id="text1"
       inkscape:label="&amp;"
       aria-label="&amp;" />
    <path
       style="-inkscape-font-specification:Gabriela;fill:#ffffff;stroke-width:15.7447"
       d="m -330.01964,181.48178 q -10.95846,0 -18.13814,-3.96772 -7.17968,-3.96772 -10.76952,-10.2027 -3.40091,-6.23499 -3.40091,-12.84785 0,-5.85711 2.64515,-11.14741 2.83409,-5.10135 8.12438,-8.50225 5.47923,-3.21196 13.22573,-3.21196 2.07833,0 2.83408,0.56681 0.75576,0.75576 0.75576,1.51152 0,1.13363 -2.26727,3.21196 -2.26727,2.26727 -4.72348,6.23499 -2.26726,3.96771 -2.26726,10.95846 0,7.17968 4.34559,12.28103 4.3456,5.29029 12.0921,5.29029 8.12438,0 13.03679,-4.72347 5.10135,-4.53454 7.36862,-12.65891 2.26727,-7.93544 2.26727,-18.13815 v -27.96297 q -4.3456,8.12438 -13.03679,13.03679 -8.50226,4.91242 -19.08284,4.91242 -13.41467,0 -20.97223,-8.12438 -7.55756,-8.31332 -7.55756,-23.239497 V 52.814326 q 0,-4.156658 -3.77878,-4.156658 h -8.31331 l -1.70046,-4.912414 q 4.91242,-4.912413 11.90316,-8.124376 7.17968,-3.211963 13.03679,-3.211963 2.64515,0 4.3456,1.700451 1.70045,1.700451 1.70045,4.345597 v 51.958223 q 0,23.050554 17.76027,23.050554 12.65891,0 19.64965,-9.44695 7.17968,-9.635885 7.17968,-26.451455 0,-9.258011 -0.56681,-15.870876 -0.37788,-6.612865 -1.88939,-11.525279 -1.51152,-5.101353 -4.91242,-9.44695 l -2.26727,-3.023023 2.26727,-2.834085 23.05056,-2.456207 V 133.1134 q 0,23.42843 -11.52528,35.89841 -11.33634,12.46997 -30.41918,12.46997 z m 112.22988,-49.87989 q -13.22573,0 -23.05056,-6.04605 -9.63589,-6.04605 -15.11512,-16.81557 -5.29029,-10.958463 -5.29029,-25.506766 0,-15.304058 6.04605,-26.640398 6.04604,-11.33634 17.00451,-17.571326 11.1474,-6.423926 25.88464,-6.423926 10.95846,0 17.9492,3.967719 7.17969,3.967719 10.58059,10.391644 3.58984,6.234987 3.58984,13.414669 0,7.746499 -4.15666,15.11512 -3.96772,7.36862 -12.0921,12.092095 -7.93543,4.723475 -19.83859,4.723475 -1.88939,0 -5.47923,-0.377878 -3.4009,-0.566817 -6.99074,-1.511512 -3.40091,-1.133634 -5.85711,-2.834085 -2.45621,-1.700451 -2.45621,-4.156658 0,-1.511512 0.75576,-2.834084 0.94469,-1.322573 2.07833,-1.322573 1.51151,0 3.77878,1.322573 2.4562,1.133633 8.31331,1.133633 8.12438,0 13.41467,-3.023023 5.29029,-3.211963 7.93544,-8.124377 2.64514,-5.101353 2.64514,-10.391645 0,-6.990743 -4.53453,-12.469974 -4.53454,-5.66817 -13.41467,-5.66817 -12.0921,0 -18.8939,10.580584 -6.8018,10.580584 -6.8018,30.608117 0,16.626632 6.99074,26.262516 7.17968,9.63589 20.97223,9.63589 7.93543,0 14.92618,-2.64514 6.99074,-2.64515 12.65891,-8.12438 0.75576,-0.75576 1.70045,-0.75576 1.51151,0 3.21196,1.88939 1.70045,1.70046 1.70045,3.58985 0,0.94469 -0.75575,1.70045 -14.5483,16.81557 -37.40992,16.81557 z m 91.06847,0 q -9.25801,0 -16.81557,-2.83409 -7.36862,-2.83408 -11.71421,-8.12437 -4.3456,-5.47924 -4.3456,-12.65892 0,-6.42392 4.3456,-10.580581 4.34559,-4.156658 11.33633,-4.156658 1.51152,0 2.64515,0.566817 1.32257,0.377878 1.32257,1.700451 0,1.133634 -1.13363,3.589841 -1.13363,2.26727 -1.13363,6.99074 0,5.66817 2.83408,9.25801 2.83409,3.58984 6.99074,5.2903 4.15666,1.70045 8.12438,1.70045 7.7465,0 12.65891,-4.15666 5.10136,-4.3456 5.10136,-11.1474 0,-4.53454 -3.02303,-7.557562 -2.83408,-3.211963 -7.55756,-5.66817 -4.72347,-2.456207 -10.01376,-4.723475 -6.80181,-2.834085 -13.79255,-6.612865 -6.99074,-3.778779 -11.71422,-9.446949 -4.72347,-5.857109 -4.72347,-14.926181 0,-7.746499 4.53453,-13.414669 4.53454,-5.668169 12.28104,-8.880132 7.7465,-3.211963 17.57132,-3.211963 13.22573,0 22.10587,5.290292 9.069068,5.101352 9.069068,14.170424 0,6.990743 -4.534536,11.714218 -4.345602,4.723475 -11.336342,4.723475 -3.96772,0 -3.96772,-2.456207 0,-1.511512 1.32258,-3.77878 1.51151,-2.456207 1.51151,-6.801804 0,-5.101353 -2.45621,-8.124377 -2.45621,-3.023024 -6.04605,-4.345597 -3.4009,-1.322573 -6.99074,-1.322573 -7.93544,0 -12.28103,3.967719 -4.3456,3.77878 -4.3456,9.824828 0,5.101353 3.02302,8.691194 3.21197,3.589841 8.31332,6.234987 5.10135,2.645146 10.76952,5.101353 6.99074,2.834085 13.60361,6.423925 6.801803,3.400902 11.336339,8.502255 4.534536,5.101353 4.534536,12.847854 0,12.84785 -10.202706,20.59435 -10.202709,7.7465 -27.207219,7.7465 z"
       id="text1-9"
       inkscape:label="yes"
       transform="rotate(-90)"
       aria-label="yes" />
  </g>
</svg>
