<?xml version="1.0" encoding="UTF-8" standalone="no"?>
<!-- Created with Inkscape (http://www.inkscape.org/) -->

<svg
   width="500"
   height="360"
   viewBox="0 0 500 360"
   version="1.1"
   id="svg1"
   inkscape:version="1.3.2 (091e20ef0f, 2023-11-25)"
   sodipodi:docname="logo.svg"
   xmlns:inkscape="http://www.inkscape.org/namespaces/inkscape"
   xmlns:sodipodi="http://sodipodi.sourceforge.net/DTD/sodipodi-0.dtd"
   xmlns="http://www.w3.org/2000/svg"
   xmlns:svg="http://www.w3.org/2000/svg">
  <sodipodi:namedview
     id="namedview1"
     pagecolor="#505050"
     bordercolor="#eeeeee"
     borderopacity="1"
     inkscape:showpageshadow="0"
     inkscape:pageopacity="0"
     inkscape:pagecheckerboard="0"
     inkscape:deskcolor="#505050"
     inkscape:document-units="px"
     inkscape:zoom="1.0015858"
     inkscape:cx="250.10339"
     inkscape:cy="238.12239"
     inkscape:window-width="1920"
     inkscape:window-height="1043"
     inkscape:window-x="0"
     inkscape:window-y="0"
     inkscape:window-maximized="1"
     inkscape:current-layer="layer1" />
  <defs
     id="defs1" />
  <g
     inkscape:label="logo"
     inkscape:groupmode="layer"
     id="layer1"
     transform="translate(-9.5902605,5.6628948)">
    <path
       style="font-size:473.104px;font-family:Gabriela;-inkscape-font-specification:Gabriela;fill:#ffffff;stroke-width:39.4253"
       d="m 323.39175,350.27269 q -54.40696,0 -87.52424,-25.07452 -33.11728,-25.54761 -33.11728,-72.38491 0,-31.69797 21.76279,-56.29937 21.76278,-24.60141 64.34214,-35.4828 -30.27865,-7.56967 -48.72971,-26.49383 -18.45106,-19.39726 -18.45106,-52.041439 0,-21.28968 12.77381,-40.686945 13.24691,-19.397264 39.26763,-31.697968 26.02072,-12.7738079 64.81525,-12.7738079 22.23589,0 40.21384,7.0965601 17.97796,7.0965598 28.38624,19.8703678 10.8814,12.773808 10.8814,29.805553 0,17.977952 -10.8814,29.805552 -10.88139,11.354496 -30.27865,11.354496 -9.93519,0 -9.93519,-4.73104 0,-2.838624 4.73104,-8.988976 5.20415,-6.623456 5.20415,-22.708992 0,-17.977953 -11.3545,-28.859345 -11.35449,-10.881392 -32.17107,-10.881392 -19.39727,0 -33.11728,8.988976 -13.24691,8.515872 -19.87037,22.708993 -6.62346,13.720016 -6.62346,28.859344 0,33.117283 17.03175,49.675923 17.50485,16.55864 40.68694,16.55864 3.31173,0 4.73104,3.78483 1.89242,3.31173 1.89242,6.62346 0,2.83862 -1.41931,6.15035 -1.41932,3.31173 -4.73104,3.31173 -39.26764,9.93518 -57.24559,34.53659 -17.97795,24.60141 -17.97795,52.04144 0,17.97795 8.04277,35.00969 8.51587,16.55864 24.1283,27.44004 15.61243,10.40828 37.37522,10.40828 31.22486,0 52.04144,-16.55864 20.81658,-16.55864 20.81658,-48.2566 0,-13.72002 -3.31173,-23.1821 -3.31173,-9.46208 -8.04277,-15.61243 -5.20414,0 -9.93518,0.4731 -4.25794,0 -8.04277,0 -22.709,1.89242 -33.59039,8.04277 -10.40829,5.67725 -14.66622,11.3545 -3.78483,5.20414 -7.09656,5.20414 -3.78483,0 -7.09656,-4.73104 -3.31173,-5.20414 -3.31173,-10.40829 0,-13.72001 10.88139,-19.39726 11.3545,-6.15035 28.85935,-8.04277 17.97795,-1.89242 37.37521,-2.83862 19.87037,-0.94621 37.37522,-3.78484 17.97795,-3.31172 28.85934,-11.35449 11.3545,-8.51587 11.3545,-25.54762 0,-15.13933 -6.15035,-23.6552 -6.15035,-8.51587 -12.77381,-13.24691 -6.15035,-4.73104 -6.15035,-8.04277 0,-3.78483 7.09656,-5.20414 7.56966,-1.89242 13.72001,-1.89242 19.87037,0 35.0097,13.24691 15.13933,13.24692 15.13933,35.4828 0,17.50485 -8.51587,29.33245 -8.51588,11.3545 -22.709,18.45106 -13.72001,6.62345 -30.27865,9.93518 -16.55864,3.31173 -32.17107,4.73104 10.40828,8.98898 16.55864,21.76279 6.15035,12.7738 6.15035,27.44003 0,17.97795 -10.40829,36.90211 -10.40829,18.92416 -34.53659,31.69797 -24.12831,12.77381 -65.28836,12.77381 z"
       id="text1"
       inkscape:label="&amp;"
       aria-label="&amp;" />
    <path
       style="font-size:229.926px;font-family:Gabriela;-inkscape-font-specification:Gabriela;fill:#ffffff;stroke-width:19.1604"
       d="m 57.347973,-14.590263 q -13.335708,0 -22.072896,-4.828446 -8.737187,-4.828446 -13.105781,-12.416003 -4.138668,-7.587558 -4.138668,-15.634968 0,-7.127706 3.218964,-13.565634 3.44889,-6.208002 9.886818,-10.346669 6.667853,-3.908742 16.094819,-3.908742 2.529186,0 3.44889,0.689778 0.919704,0.919704 0.919704,1.839408 0,1.379556 -2.759112,3.908741 -2.759112,2.759112 -5.74815,7.587558 -2.759112,4.828446 -2.759112,13.335708 0,8.737188 5.288298,14.94519 5.288298,6.437928 14.715264,6.437928 9.886818,0 15.864894,-5.74815 6.208001,-5.518224 8.967113,-15.405042 2.759112,-9.656892 2.759112,-22.072896 v -34.029048 q -5.288298,9.886819 -15.864893,15.864895 -10.34667,5.978076 -23.222526,5.978076 -16.324746,0 -25.521785,-9.886818 -9.19704,-10.116743 -9.19704,-28.280893 v -51.04358 q 0,-5.05837 -4.59852,-5.05837 H -0.59337776 l -2.06933394,-5.97807 q 5.9780759,-5.97808 14.4853377,-9.88682 8.737188,-3.90874 15.864894,-3.90874 3.218964,0 5.288297,2.06933 2.069334,2.06934 2.069334,5.2883 v 63.22965 q 0,28.050969 21.613044,28.050969 15.405042,0 23.912303,-11.496299 8.737188,-11.72623 8.737188,-32.18964 0,-11.26637 -0.689778,-19.31378 -0.459852,-8.04741 -2.29926,-14.02549 -1.839408,-6.208 -5.978076,-11.4963 l -2.759112,-3.67881 2.759112,-3.44889 28.050968,-2.98904 v 122.550553 q 0,28.510823 -14.025482,43.685939 -13.79556,15.175115 -37.018085,15.175115 z M 193.92415,-75.290725 q -16.09482,0 -28.05097,-7.357632 -11.72623,-7.357632 -18.39408,-20.463413 -6.43793,-13.33571 -6.43793,-31.04001 0,-18.62401 7.35763,-32.41957 7.35763,-13.79556 20.69334,-21.38311 13.56563,-7.81749 31.49986,-7.81749 13.33571,0 21.84297,4.82845 8.73719,4.82845 12.87586,12.64593 4.36859,7.58756 4.36859,16.32474 0,9.42697 -5.05837,18.39408 -4.82845,8.96712 -14.71527,14.71527 -9.65689,5.74815 -24.14223,5.74815 -2.29926,0 -6.66785,-0.45985 -4.13867,-0.68978 -8.50726,-1.83941 -4.13867,-1.37956 -7.12771,-3.44889 -2.98903,-2.06934 -2.98903,-5.05837 0,-1.83941 0.9197,-3.44889 1.14963,-1.60949 2.52919,-1.60949 1.8394,0 4.59851,1.60949 2.98904,1.37955 10.11675,1.37955 9.88682,0 16.32474,-3.67881 6.43793,-3.90875 9.6569,-9.88682 3.21896,-6.208 3.21896,-12.64593 0,-8.50726 -5.51822,-15.17512 -5.51823,-6.89778 -16.32475,-6.89778 -14.71526,0 -22.9926,12.87586 -8.27733,12.87585 -8.27733,37.24801 0,20.23349 8.50726,31.95971 8.73718,11.726229 25.52178,11.726229 9.65689,0 18.16416,-3.218964 8.50726,-3.218964 15.40504,-9.886815 0.9197,-0.91971 2.06933,-0.91971 1.83941,0 3.90874,2.29926 2.06934,2.06934 2.06934,4.368597 0,1.14963 -0.91971,2.069334 -17.7043,20.463414 -45.52534,20.463414 z m 110.82417,0 q -11.26638,0 -20.46342,-3.44889 -8.96711,-3.44889 -14.25541,-9.886818 -5.2883,-6.667854 -5.2883,-15.405037 0,-7.81749 5.2883,-12.87586 5.2883,-5.05837 13.79556,-5.05837 1.83941,0 3.21896,0.68978 1.60949,0.45985 1.60949,2.06933 0,1.37956 -1.37956,4.36859 -1.37956,2.75912 -1.37956,8.50727 0,6.897775 3.44889,11.266369 3.44889,4.368594 8.50727,6.437928 5.05837,2.069334 9.88681,2.069334 9.42697,0 15.40505,-5.058372 6.208,-5.288298 6.208,-13.565629 0,-5.51823 -3.67882,-9.19704 -3.44889,-3.90875 -9.19704,-6.89778 -5.74815,-2.98904 -12.18608,-5.74815 -8.27733,-3.44889 -16.78459,-8.04741 -8.50727,-4.59852 -14.25541,-11.4963 -5.74815,-7.12771 -5.74815,-18.16416 0,-9.42696 5.51822,-16.32474 5.51822,-6.89778 14.94519,-10.80652 9.42696,-3.90875 21.38312,-3.90875 16.09482,0 26.90134,6.43793 11.03645,6.208 11.03645,17.24445 0,8.50726 -5.51823,14.25541 -5.2883,5.74815 -13.79556,5.74815 -4.82844,0 -4.82844,-2.98904 0,-1.8394 1.60948,-4.59852 1.83941,-2.98903 1.83941,-8.27733 0,-6.208 -2.98904,-9.88682 -2.98904,-3.67882 -7.35763,-5.2883 -4.13867,-1.60948 -8.50727,-1.60948 -9.65689,0 -14.94519,4.82845 -5.28829,4.59852 -5.28829,11.95615 0,6.208 3.67881,10.57659 3.90874,4.3686 10.11675,7.58756 6.208,3.21897 13.10578,6.208 8.50726,3.44889 16.55467,7.81749 8.27734,4.13867 13.79556,10.34667 5.51822,6.208 5.51822,15.63497 0,15.634963 -12.416,25.061929 -12.416,9.426966 -33.10934,9.426966 z"
       id="text1-9"
       inkscape:label="yes"
       transform="rotate(90)"
       aria-label="yes" />
  </g>
</svg>
